<?xml version="1.0" encoding="UTF-8"?>
<svg id="_レイヤー_2" data-name="レイヤー 2" xmlns="http://www.w3.org/2000/svg" viewBox="0 0 257.65 198.13">
  <defs>
    <style>
      .cls-1 {
        fill: #211815;
      }
    </style>
  </defs>
  <g id="_レイヤー_1-2" data-name="レイヤー 1">
    <path class="cls-1" d="m248.34,20.8c-1.93-.46-4.36-2.93-4.8-4.88-2.52-11.09-10.9-13.9-20.43-14.89-28.09-2.92-55.51,0-80.83,12.96-4.73,2.42-9.15,3.6-13.46,3.72-4.31-.12-8.73-1.3-13.46-3.72C90.05,1.04,62.63-1.88,34.54,1.04c-9.53.99-17.9,3.8-20.43,14.89-.44,1.94-2.87,4.41-4.8,4.88C.73,22.85-.07,28.85,0,36.13c.21,22.51.08,45.03.08,67.54h-.03c0,23.1-.07,46.2.03,69.3.05,10.94,3.88,14.42,14.66,12.94,27.64-3.78,55.25-4.65,82.69,1.1,4.79,1,8.94,4.89,13.47,7.29,2.53,1.34,5.16,3.15,7.87,3.38,3.33.28,6.7.46,10.05.45,3.36.01,6.73-.17,10.06-.45,2.7-.23,5.34-2.03,7.87-3.38,4.53-2.4,8.69-6.28,13.47-7.29,27.43-5.76,55.05-4.88,82.69-1.1,10.78,1.47,14.61-2,14.66-12.94.1-23.1.03-46.2.03-69.3h-.03c0-22.51-.14-45.03.08-67.54.07-7.29-.73-13.28-9.31-15.33ZM115.72,187.27c-.25.45-.82.61-1.27.35-4.04-2.29-7.64-5.03-11.66-6.61-4.13-1.56-8.62-1.94-12.96-2.68-17.75-2.59-35.78-2.64-53.63-1.09-7.91.63-15.62,1.78-23.49,2.81-.71.06-2.22.24-2.92.16,0,0-1.12-.07-1.12-.08-.91-.07-1.7-.75-1.94-1.68-.56-1.77-.6-3.11-.7-4.8-.18-7.44-.28-21.13-.46-28.7l-.5-32.75c0-.12.02-.24.03-.36,0-19.4-.01-57.75-.08-76.94.15-4.71,6.9-4.54,7-.01,0,.01.08,38.65.08,38.66,0,0,0,38.64,0,38.64,0,.13-.02.24-.04.37-.2,15.11-.66,42.26-.82,56.93.03,1.45-.13,3.84,0,5.71.44-.03,1.04-.07,1.04-.07,25.84-3.04,52.24-4.02,77.98.58,4.5.9,9.13,1.44,13.4,3.22,4.23,1.83,7.82,4.7,11.67,7.05.47.25.66.83.39,1.3Zm5.52-87.43c-.07,22.46-.02,44.92-.02,68.05-2.03.43-2.93.86-3.76.74-1.79-.25-3.62-.57-5.31-1.21-23.94-9.03-48.84-12.44-74.25-11.65-7.76.24-9.43-2.78-9.29-9.5.27-12.71.05-25.43.04-38.15-.02-27.06.09-54.12-.16-81.17-.06-6.87,1.73-10.87,9.35-11.56,27.69-2.52,53.86,2.68,78.53,15.16,2.5,1.27,4.99,5.39,5.03,8.22.29,20.35-.11,40.72-.18,61.08Zm15.18,68.05c0-23.13.05-45.59-.02-68.05-.06-20.36-.47-40.72-.18-61.08.04-2.83,2.53-6.95,5.03-8.22,24.67-12.48,50.84-17.68,78.53-15.16,7.62.69,9.42,4.69,9.35,11.56-.25,27.06-.13,54.11-.16,81.17-.01,12.72-.23,25.44.04,38.15.14,6.73-1.52,9.74-9.29,9.5-25.41-.79-50.31,2.62-74.25,11.65-1.69.64-3.52.96-5.31,1.21-.83.11-1.73-.32-3.76-.74Zm116.14-56.06c.01.12.03.24.03.36l-.5,32.75c-.19,7.57-.28,21.26-.46,28.7-.1,1.68-.14,3.03-.7,4.8-.24.92-1.03,1.61-1.94,1.68,0,0-1.11.08-1.12.08-.7.08-2.22-.09-2.92-.16-7.88-1.02-15.59-2.18-23.49-2.81-17.85-1.55-35.88-1.5-53.63,1.09-4.34.74-8.83,1.12-12.96,2.68-4.03,1.58-7.62,4.32-11.66,6.61-.45.25-1.02.1-1.27-.35-.26-.47-.08-1.05.39-1.3,3.85-2.35,7.44-5.23,11.67-7.05,4.27-1.78,8.91-2.32,13.4-3.22,25.73-4.6,52.13-3.62,77.98-.58,0,0,.6.04,1.04.07.14-1.86-.03-4.26,0-5.71-.16-14.67-.62-41.82-.82-56.93-.01-.12-.04-.24-.04-.37v-38.64s.08-38.65.08-38.66c.1-4.52,6.85-4.7,7,.01-.07,19.18-.09,57.54-.08,76.94Z"/>
  </g>
</svg>