<?xml version="1.0" encoding="UTF-8"?>
<svg id="_レイヤー_2" data-name="レイヤー 2" xmlns="http://www.w3.org/2000/svg" viewBox="0 0 150.28 179.6">
  <defs>
    <style>
      .cls-1 {
        fill: #040000;
      }
    </style>
  </defs>
  <g id="_レイヤー_1-2" data-name="レイヤー 1">
    <g>
      <path class="cls-1" d="m62.25,59.09c0,.72.6,1.14,1.64,1.14.82,0,1.72-.3,2.26-.76.46-.4.72-.94.72-1.54v-.56c-1.78.04-2.64.14-3.46.4-.72.24-1.16.74-1.16,1.32Z"/>
      <path class="cls-1" d="m35.73,59.09c0,.72.6,1.14,1.64,1.14.82,0,1.72-.3,2.26-.76.46-.4.72-.94.72-1.54v-.56c-1.78.04-2.64.14-3.46.4-.72.24-1.16.74-1.16,1.32Z"/>
      <path class="cls-1" d="m122.53,53.01c-1.42,0-2.28.64-2.62,1.96h5.14c-.28-1.28-1.14-1.96-2.52-1.96Z"/>
      <path class="cls-1" d="m150.28,142.95V0H40.32v29.32l-14.66,3.67V0h-10.24C6.9,0,0,6.7,0,14.97v149.67c0,8.27,6.9,14.97,15.41,14.97h134.87v-14.66l-135.62-3.67v-7.33s117.29,0,135.62-11Zm-51.31-26.5h-47.65v-11h47.65v11Zm14.66-24.74l-76.97,2.75v-11l76.97-2.75v11Zm16.02-41.19h3.98v1.58c.98-1.28,2.18-1.82,4-1.82.64,0,1.04.04,1.98.24l-.96,3.6c-.92-.28-1.42-.38-2.04-.38-1.02,0-1.8.36-2.38,1.08-.38.48-.52.9-.6,1.78v3.12c0,1.28.04,2.04.16,3h-4.14c.12-1,.16-1.72.16-3.02v-6.16c0-1.46-.04-2.16-.16-3.02Zm-7.12-.48c3.12,0,5.3,1.7,6,4.68.16.64.24,1.48.3,2.62,0,.08,0,.2.02.4h-9c.2,1.62,1.14,2.48,2.72,2.48.8,0,1.5-.26,2.02-.74.3-.28.44-.5.6-1.02l3.48.98c-.46,1.04-.76,1.5-1.32,2.06-1.14,1.12-2.74,1.7-4.72,1.7s-3.5-.56-4.64-1.7c-1.18-1.2-1.82-2.9-1.82-4.88,0-3.96,2.54-6.58,6.36-6.58Zm-15.62.48c.04.48.14.9.38,1.72l1.86,6.22s.04.12.08.22c.06.2.06.22.16.56.06-.18.08-.28.1-.36.02-.04.04-.1.06-.2.04-.1.06-.18.08-.24l1.86-6.2c.22-.74.34-1.28.38-1.72h4.44c-.4.9-.56,1.28-.82,1.94l-3.36,8.58c-.34.86-.44,1.18-.54,1.68h-4.38c-.1-.5-.2-.82-.54-1.68l-3.36-8.58c-.12-.28-.4-.92-.84-1.94h4.44Zm-9-4.44h4.18c-.12.84-.16,1.66-.16,3.02v10.6c0,1.2.04,1.96.16,3.02h-4.18c.12-.9.16-1.58.16-3.02v-10.6c0-1.42-.04-2.26-.16-3.02Zm-5.44,0h4.06v3h-4.06v-3Zm-.06,4.44h4.18c-.12.82-.16,1.62-.16,3.02v6.16c0,1.08.06,2.16.16,3.02h-4.18c.12-.98.16-1.74.16-3.02v-6.16c0-1.3-.04-2.12-.16-3.02Zm-6.16,6c-.42-.2-.92-.34-3-.82-1.84-.4-2.48-.64-3.22-1.16-1.26-.88-1.94-2.22-1.94-3.84,0-3.08,2.48-5.02,6.42-5.02,2.54,0,4.48.78,5.56,2.28.5.66.74,1.26,1,2.4l-4.24.46c-.24-1.3-.96-1.84-2.48-1.84-1.22,0-2.12.66-2.12,1.58,0,.56.3.98.94,1.28q.4.18,2.76.66c1.52.32,2.48.66,3.24,1.14,1.44.9,2.16,2.24,2.16,4.08,0,1.5-.48,2.78-1.4,3.68-1.16,1.12-2.92,1.7-5.26,1.7-1.7,0-3.38-.36-4.46-.98-1-.56-1.74-1.42-2.16-2.56-.2-.48-.3-.94-.44-1.86l4.16-.4c.08.72.22,1.08.52,1.48.48.6,1.32.94,2.34.94,1.54,0,2.46-.68,2.46-1.8,0-.62-.32-1.16-.84-1.4Zm-25.68-5.2c1.08-.76,2.56-1.14,4.5-1.14,1.48,0,2.92.28,3.7.7,1.28.7,1.84,1.8,1.84,3.6v5.4c0,1.22.04,1.94.14,2.84h-3.88v-.92c-1.12.86-2.24,1.2-3.88,1.2-1.52,0-2.66-.36-3.46-1.1-.72-.66-1.1-1.62-1.1-2.72,0-1.26.5-2.26,1.46-2.92,1.02-.72,2.36-1.14,4.16-1.3.78-.08,1.38-.1,2.82-.14v-.46c0-.96-.58-1.4-1.9-1.4s-1.96.42-2.26,1.4l-3.82-.62c.4-1.18.84-1.82,1.68-2.42Zm-11.5-.8c.04.48.14.9.38,1.72l1.86,6.22s.04.12.08.22c.06.2.06.22.16.56.06-.18.08-.28.1-.36.02-.04.04-.1.06-.2.04-.1.06-.18.08-.24l1.86-6.2c.22-.74.34-1.28.38-1.72h4.44c-.4.9-.56,1.28-.82,1.94l-3.36,8.58c-.34.86-.44,1.18-.54,1.68h-4.38c-.1-.5-.2-.82-.54-1.68l-3.36-8.58c-.12-.28-.4-.92-.84-1.94h4.44Zm-10.62,2.44c-1.28,0-1.96.42-2.26,1.4l-3.82-.62c.4-1.18.84-1.82,1.68-2.42,1.08-.76,2.56-1.14,4.5-1.14,1.48,0,2.92.28,3.7.7,1.28.7,1.84,1.8,1.84,3.6v5.4c0,1.22.04,1.94.14,2.84h-3.88v-.92c-1.12.86-2.24,1.2-3.88,1.2-1.52,0-2.66-.36-3.46-1.1-.72-.66-1.1-1.62-1.1-2.72,0-1.26.5-2.26,1.46-2.92,1.02-.72,2.36-1.14,4.16-1.3.78-.08,1.38-.1,2.82-.14v-.46c0-.96-.58-1.4-1.9-1.4Zm-16.12,4.6c.42,1.56,1.02,2.12,2.3,2.12s1.96-.66,1.96-2.04v-8.32c0-1.7-.04-2.32-.16-3.24h4.4c-.14.88-.16,1.48-.16,3.22v8.34c0,1.64-.44,2.9-1.38,3.84-1.02,1.04-2.64,1.62-4.6,1.62-2.18,0-3.82-.62-4.94-1.86-.58-.64-.86-1.14-1.32-2.34l3.9-1.34Z"/>
    </g>
  </g>
</svg>